<svg xmlns="http://www.w3.org/2000/svg" width="22" height="19.247" viewBox="0 0 22 19.247">
  <g id="Group_1057" data-name="Group 1057" transform="translate(-56.682 -188.218)">
    <path id="Path_286" data-name="Path 286" d="M67.683,191.583a6.236,6.236,0,0,1,1.273-1.778,5.31,5.31,0,0,1,3.991-1.579,5.8,5.8,0,0,1,4.759,2.811,6.416,6.416,0,0,1,.618,5.567,13.3,13.3,0,0,1-2.268,4.157,34.284,34.284,0,0,1-5.678,5.751,4.288,4.288,0,0,1-5.351.032,32.158,32.158,0,0,1-6.207-6.447,11.556,11.556,0,0,1-1.917-3.965,6.258,6.258,0,0,1,1.218-5.739,5.6,5.6,0,0,1,4.429-2.164,5.485,5.485,0,0,1,4.865,2.878C67.5,191.248,67.578,191.4,67.683,191.583Zm-9.647,2.8-.054.01c.094.538.149,1.087.29,1.612a11.132,11.132,0,0,0,1.892,3.638,32.66,32.66,0,0,0,5.558,5.744,3.03,3.03,0,0,0,3.917,0,39.9,39.9,0,0,0,3.446-3.22,21.854,21.854,0,0,0,2.866-3.655,7.972,7.972,0,0,0,1.362-3.953,4.683,4.683,0,0,0-2.391-4.388,3.64,3.64,0,0,0-2.168-.6,4.6,4.6,0,0,0-3.977,2.759,4.755,4.755,0,0,0-.434,2.218.65.65,0,0,1-.577.664.662.662,0,0,1-.726-.471,1.675,1.675,0,0,1-.026-.392,4.689,4.689,0,0,0-2.207-4.06,3.879,3.879,0,0,0-2.377-.719A4.728,4.728,0,0,0,58.036,194.388Z" transform="translate(0 0)"/>
  </g>
</svg>
